<?xml version="1.0" standalone="no"?>
<!DOCTYPE svg PUBLIC "-//W3C//DTD SVG 20010904//EN"
 "http://www.w3.org/TR/2001/REC-SVG-20010904/DTD/svg10.dtd">
<svg version="1.0" xmlns="http://www.w3.org/2000/svg"
 width="500.000000pt" height="500.000000pt" viewBox="0 0 500.000000 500.000000"
 preserveAspectRatio="xMidYMid meet">

<g transform="translate(0.000000,500.000000) scale(0.100000,-0.100000)"
fill="#000000" stroke="none">
<path d="M283 3110 c-48 -11 -117 -55 -145 -92 -51 -67 -88 -165 -88 -235 0
-17 -7 -39 -16 -47 -8 -9 -11 -16 -5 -16 5 0 13 -26 17 -57 4 -32 13 -76 21
-98 14 -39 58 -95 76 -95 5 0 -5 12 -22 26 -21 17 -36 43 -45 77 -17 63 -28
137 -20 137 10 0 88 -57 107 -78 10 -11 27 -42 37 -68 11 -27 19 -41 20 -32 1
48 -58 126 -129 170 l-33 21 5 66 c14 187 131 314 289 316 60 0 70 -3 97 -29
61 -59 65 -180 15 -506 -32 -215 -37 -380 -12 -427 34 -62 96 -80 158 -48 70
36 187 242 261 457 18 53 35 95 37 93 2 -2 -1 -32 -7 -67 -49 -291 1 -467 120
-418 45 19 151 129 234 243 38 53 70 95 72 94 1 -2 -3 -36 -8 -76 -8 -54 -7
-77 1 -85 14 -14 40 18 40 49 0 31 45 157 76 216 16 28 43 64 61 80 19 16 29
29 24 29 -19 0 -73 -64 -102 -121 -16 -33 -30 -59 -32 -59 -1 0 -1 18 1 40 3
23 0 40 -6 40 -16 0 -42 -30 -42 -48 0 -19 -131 -197 -206 -281 -204 -227
-244 -120 -154 404 16 94 42 223 58 287 16 65 27 120 24 123 -12 12 -32 4 -43
-17 -7 -12 -31 -92 -55 -178 -94 -346 -225 -660 -312 -749 -57 -60 -93 -72
-130 -44 -51 38 -53 105 -11 400 32 233 40 410 20 481 -29 104 -124 152 -248
122z"/>
<path d="M2889 2981 c-77 -82 -141 -321 -143 -536 -1 -145 7 -190 39 -211 21
-14 27 -14 52 0 38 19 96 84 158 175 l50 73 6 -78 c6 -94 13 -112 45 -120 57
-14 118 32 211 163 25 35 47 62 49 61 1 -2 -1 -21 -6 -43 -15 -66 -13 -135 5
-135 17 0 17 -2 39 95 30 130 95 242 160 277 38 21 26 24 -13 4 -33 -17 -68
-62 -104 -131 l-26 -50 -1 43 c0 59 -29 53 -45 -10 -4 -15 -44 -73 -90 -130
-126 -157 -175 -174 -175 -59 0 31 7 97 15 146 18 112 19 105 -4 105 -24 0
-37 -16 -50 -66 -22 -84 -210 -323 -244 -311 -38 12 -44 103 -16 262 9 52 19
72 70 136 117 147 174 295 135 354 -26 40 -70 34 -117 -14z m109 -4 c12 -24
11 -37 -7 -95 -19 -64 -119 -231 -156 -262 -15 -13 -16 -10 -10 36 12 79 54
232 76 277 42 83 72 96 97 44z"/>
<path d="M4187 2980 c-18 -16 -48 -60 -66 -99 -29 -64 -81 -243 -81 -283 0
-10 -4 -18 -10 -18 -5 0 -10 4 -10 9 0 5 -13 23 -29 40 -41 44 -83 42 -127 -4
-18 -20 -38 -53 -44 -73 -11 -40 -112 -167 -173 -215 -57 -47 -65 -30 -42 90
24 124 26 246 4 268 -14 14 -15 12 -11 -19 2 -18 -6 -83 -17 -143 -33 -172
-26 -233 25 -233 25 0 98 65 165 148 l34 42 2 -50 c3 -68 16 -90 56 -90 26 0
43 12 94 65 l62 65 -6 -99 c-6 -98 -5 -99 21 -126 19 -19 32 -24 49 -19 43 13
91 58 166 160 l76 102 10 -30 c24 -72 63 -57 117 42 16 30 26 44 23 30 -4 -14
-8 -65 -11 -115 -6 -104 6 -138 48 -143 35 -4 102 57 184 167 l58 79 44 -81
c42 -76 43 -82 26 -92 -30 -16 -94 -81 -94 -95 0 -7 10 2 23 20 29 44 84 77
100 61 6 -6 12 -40 12 -75 0 -75 -20 -105 -69 -107 -27 -2 -28 -2 -5 -6 70
-11 124 50 115 132 -3 28 -8 60 -12 72 -4 16 -1 23 16 28 12 4 19 9 17 12 -3
2 -14 0 -24 -5 -17 -9 -25 1 -71 82 -62 110 -66 143 -21 180 17 14 35 26 41
26 6 0 9 2 6 5 -8 9 -61 -14 -85 -37 -17 -16 -23 -33 -23 -66 0 -37 -8 -55
-45 -107 -59 -83 -141 -172 -166 -180 -30 -10 -49 12 -49 57 0 55 27 180 56
256 13 35 24 66 24 68 0 11 -39 2 -50 -11 -7 -9 -29 -15 -53 -15 -50 0 -100
-30 -121 -74 -9 -19 -16 -37 -16 -41 0 -10 -80 -126 -136 -196 -57 -72 -109
-106 -132 -86 -18 14 -10 110 19 242 11 50 22 113 24 140 11 125 76 307 125
353 38 35 -3 28 -43 -8z m-205 -359 c14 -15 30 -42 37 -59 12 -29 11 -34 -23
-81 -44 -60 -113 -124 -129 -118 -32 10 -8 187 34 256 23 39 50 40 81 2z m518
12 c-1 -19 -96 -187 -107 -191 -9 -3 -13 10 -13 42 0 82 45 156 95 156 14 0
25 -3 25 -7z"/>
<path d="M4283 2999 c44 -26 4 -142 -94 -278 -74 -102 -87 -122 -49 -81 50 55
132 180 152 232 28 75 21 139 -16 138 -6 0 -3 -5 7 -11z"/>
<path d="M1473 2764 c-7 -3 -13 -13 -13 -22 0 -13 2 -13 13 2 11 15 17 16 35
7 29 -15 57 -14 72 4 9 10 9 15 1 15 -6 0 -11 -5 -11 -11 0 -11 -10 -10 -65 5
-11 3 -26 3 -32 0z"/>
<path d="M3101 2718 c-9 -25 -4 -48 10 -48 13 0 31 40 25 56 -8 21 -26 17 -35
-8z"/>
<path d="M1561 2699 c11 -11 18 -28 15 -37 -2 -9 -14 -80 -27 -158 -19 -124
-20 -144 -8 -170 25 -51 52 -44 128 33 37 37 79 84 94 103 26 34 27 35 27 9 0
-37 22 -62 50 -57 16 2 34 20 58 58 29 48 33 51 27 23 -11 -56 -8 -160 6 -189
33 -68 94 -33 216 123 36 46 66 83 68 83 2 0 22 -35 46 -77 39 -73 41 -78 23
-88 -30 -16 -94 -81 -94 -95 0 -7 10 2 23 20 29 44 84 77 100 61 6 -6 12 -40
12 -75 0 -75 -20 -105 -69 -107 -27 -2 -28 -2 -5 -6 70 -11 124 50 115 132 -3
28 -8 60 -12 72 -4 16 -1 23 16 28 12 4 19 9 17 12 -3 2 -14 0 -25 -6 -17 -9
-24 0 -71 88 -28 54 -51 107 -51 118 0 47 63 93 101 73 25 -14 34 -52 19 -80
-10 -18 -9 -21 2 -18 23 8 22 74 -1 97 -57 57 -173 -19 -157 -101 5 -24 -3
-41 -40 -95 -62 -86 -140 -170 -166 -179 -12 -4 -26 0 -36 10 -14 14 -15 26
-3 103 6 49 25 128 42 176 16 49 29 90 29 93 0 11 -39 2 -50 -11 -7 -9 -29
-15 -54 -15 -67 0 -107 -32 -135 -111 -22 -62 -178 -229 -214 -229 -12 0 -4
82 18 203 14 80 15 106 6 137 -12 39 -34 70 -52 70 -5 0 0 -9 12 -21z m394
-76 c-19 -51 -98 -183 -106 -178 -24 16 -1 119 37 165 29 34 81 44 69 13z"/>
<path d="M4894 2663 c14 -17 17 -32 13 -60 -5 -26 -3 -33 3 -23 17 26 11 66
-12 86 l-23 19 19 -22z"/>
<path d="M2500 2481 c-30 -30 -41 -45 -25 -34 34 24 91 81 84 86 -2 1 -29 -22
-59 -52z"/>
<path d="M191 2487 c-13 -21 -12 -21 5 -5 10 10 16 20 13 22 -3 3 -11 -5 -18
-17z"/>
<path d="M2414 2414 c-18 -14 -18 -15 4 -4 12 6 22 13 22 15 0 8 -5 6 -26 -11z"/>
<path d="M4954 2414 c-18 -14 -18 -15 4 -4 12 6 22 13 22 15 0 8 -5 6 -26 -11z"/>
<path d="M2886 1782 c-3 -5 8 -9 24 -10 17 0 30 4 30 9 0 11 -47 12 -54 1z"/>
<path d="M1577 1743 c-15 -14 -6 -43 18 -59 27 -18 25 -34 -6 -34 -10 0 -19
-4 -19 -10 0 -11 30 -13 54 -4 25 10 19 49 -9 64 -27 15 -29 35 -2 35 8 0 19
4 23 8 4 4 -6 7 -23 7 -16 0 -33 -3 -36 -7z"/>
<path d="M1730 1690 c0 -58 15 -84 22 -37 2 14 11 23 26 25 12 2 27 12 33 23
15 28 -5 49 -47 49 l-34 0 0 -60z m57 34 c8 -21 -13 -42 -28 -27 -13 13 -5 43
11 43 6 0 13 -7 17 -16z"/>
<path d="M1935 1738 c-26 -73 -34 -102 -29 -107 3 -3 10 2 15 12 12 21 59 23
59 2 0 -8 7 -15 15 -15 12 0 10 11 -7 60 -21 56 -43 76 -53 48z m28 -60 c-2
-5 -8 -8 -14 -8 -11 0 -12 33 -2 44 8 8 23 -25 16 -36z"/>
<path d="M2202 1693 c3 -55 4 -58 31 -61 37 -4 67 23 67 59 0 37 -24 59 -66
59 l-35 0 3 -57z m62 31 c19 -18 20 -28 6 -55 -20 -36 -40 -23 -40 26 0 48 9
55 34 29z"/>
<path d="M2400 1690 l0 -60 35 0 c19 0 35 5 35 10 0 6 -11 10 -25 10 -16 0
-25 6 -25 15 0 8 9 15 20 15 11 0 20 5 20 10 0 6 -9 10 -20 10 -33 0 -26 38 8
43 22 3 20 4 -10 6 l-38 1 0 -60z"/>
<path d="M2680 1696 c0 -56 8 -66 51 -66 23 0 39 36 39 86 0 24 -5 34 -15 34
-11 0 -15 -12 -15 -51 0 -43 -3 -50 -17 -47 -14 2 -19 15 -21 51 -4 65 -22 60
-22 -7z"/>
<path d="M2860 1690 c0 -68 17 -82 22 -18 l3 42 28 -42 c15 -23 32 -42 37 -42
6 0 10 27 10 60 0 65 -17 83 -22 23 l-3 -37 -25 37 c-37 54 -50 48 -50 -23z"/>
<path d="M3085 1738 c-26 -73 -34 -102 -29 -107 3 -3 10 2 15 12 12 21 59 23
59 2 0 -8 7 -15 15 -15 12 0 10 11 -7 60 -21 56 -43 76 -53 48z m28 -60 c-2
-5 -8 -8 -14 -8 -11 0 -12 33 -2 44 8 8 23 -25 16 -36z"/>
<path d="M3247 1743 c-15 -14 -6 -43 18 -59 27 -18 25 -34 -6 -34 -10 0 -19
-5 -19 -11 0 -6 14 -9 33 -7 26 2 33 8 35 29 2 18 -4 29 -23 39 -27 15 -29 35
-2 35 8 0 19 4 23 8 4 4 -6 7 -23 7 -16 0 -33 -3 -36 -7z"/>
</g>
</svg>
